<svg xmlns="http://www.w3.org/2000/svg" width="114" height="21" fill="none"><path fill="#000" d="M106.859 18.417c-1.696 0-2.976-.496-3.84-1.488-.864-1.008-1.296-2.296-1.296-3.864 0-1.44.304-2.752.912-3.936a7.135 7.135 0 0 1 2.616-2.808c1.12-.704 2.408-1.056 3.864-1.056 1.6 0 2.776.344 3.528 1.032.768.672 1.152 1.496 1.152 2.472a3.53 3.53 0 0 1-.552 1.896c-.368.592-.944 1.072-1.728 1.44-.768.368-1.736.552-2.904.552h-4.104l-.024.192a3.629 3.629 0 0 0-.024.48c0 .768.24 1.424.72 1.968.496.528 1.152.792 1.968.792.656 0 1.256-.168 1.8-.504a3.539 3.539 0 0 0 1.272-1.344h2.856a7.077 7.077 0 0 1-2.352 3.024c-1.056.768-2.344 1.152-3.864 1.152Zm1.704-7.68c.864 0 1.496-.168 1.896-.504.4-.352.6-.76.6-1.224 0-.432-.184-.8-.552-1.104-.352-.32-.912-.48-1.68-.48-1.04 0-1.912.296-2.616.888-.704.592-1.152 1.4-1.344 2.424h3.696Zm-16.689 7.824c-1.36 0-2.4-.432-3.12-1.296-.704-.88-1.056-2.056-1.056-3.528 0-1.552.28-2.96.84-4.224.576-1.28 1.352-2.288 2.328-3.024.976-.736 2.056-1.104 3.24-1.104 1.104 0 1.928.256 2.472.768.56.496.928 1.048 1.104 1.656h.192L99.122.345h2.928l-3 18.024h-2.928l.408-2.328h-.192c-.432.656-1.016 1.24-1.752 1.752-.72.512-1.624.768-2.712.768Zm1.416-2.352c.72 0 1.384-.24 1.992-.72.608-.48 1.088-1.128 1.44-1.944a6.629 6.629 0 0 0 .552-2.712c0-.896-.216-1.624-.648-2.184-.416-.56-1.056-.84-1.92-.84-.736 0-1.416.24-2.04.72-.608.464-1.088 1.104-1.44 1.92-.352.816-.528 1.728-.528 2.736 0 .896.208 1.624.624 2.184.432.56 1.088.84 1.968.84ZM84.016 5.697h2.904l-2.112 12.672h-2.904l2.112-12.672Zm1.776-2.232c-.416 0-.752-.128-1.008-.384a1.415 1.415 0 0 1-.384-1.008c0-.512.2-.968.6-1.368.4-.4.864-.6 1.392-.6.432 0 .776.136 1.032.408.256.256.384.584.384.984 0 .512-.208.968-.624 1.368-.4.4-.864.6-1.392.6ZM77.25 14.193c-.097.576-.145.952-.145 1.128 0 .352.112.616.336.792.224.16.632.24 1.224.24.272 0 .648-.04 1.128-.12l-.336 2.04c-.096.032-.376.072-.84.12-.464.048-.912.072-1.344.072-1.2 0-2.032-.192-2.496-.576-.464-.4-.696-.96-.696-1.68 0-.448.048-.912.144-1.392l1.152-6.84h-2.184l.36-2.28h2.208l.696-4.128h2.88l-.672 4.128h2.88l-.36 2.28h-2.904l-1.032 6.216ZM61.727.513h2.928L63.43 7.76h.192c.416-.656.992-1.216 1.728-1.68.752-.464 1.608-.696 2.568-.696 1.36 0 2.336.384 2.928 1.152.592.768.888 1.728.888 2.88 0 .48-.032.888-.096 1.224l-1.296 7.728h-2.904l1.224-7.272a5.88 5.88 0 0 0 .072-.864c0-.768-.208-1.36-.624-1.776-.416-.416-1.008-.624-1.776-.624-.864 0-1.616.296-2.256.888-.624.592-1.016 1.384-1.176 2.376l-1.224 7.272H58.75L61.727.513ZM51.252 18.561c-1.712 0-2.984-.488-3.816-1.464-.816-.992-1.224-2.232-1.224-3.72a8.82 8.82 0 0 1 .888-3.912c.608-1.232 1.464-2.216 2.568-2.952 1.104-.752 2.36-1.128 3.768-1.128 1.664 0 2.904.48 3.72 1.44.816.96 1.208 2.16 1.176 3.6H55.5c.016-.784-.184-1.416-.6-1.896-.4-.496-1.008-.744-1.824-.744-.752 0-1.44.24-2.064.72-.608.48-1.088 1.136-1.44 1.968-.336.832-.504 1.76-.504 2.784 0 .864.208 1.568.624 2.112.432.544 1.088.816 1.968.816.816 0 1.504-.248 2.064-.744.576-.496.992-1.136 1.248-1.92h2.832a7.552 7.552 0 0 1-2.376 3.6c-1.12.96-2.512 1.44-4.176 1.44Zm-12.729-.144c-1.697 0-2.977-.496-3.84-1.488-.864-1.008-1.297-2.296-1.297-3.864 0-1.44.304-2.752.912-3.936a7.135 7.135 0 0 1 2.616-2.808c1.12-.704 2.408-1.056 3.864-1.056 1.6 0 2.776.344 3.529 1.032.767.672 1.151 1.496 1.151 2.472a3.53 3.53 0 0 1-.551 1.896c-.368.592-.944 1.072-1.728 1.44-.769.368-1.736.552-2.904.552H36.17l-.023.192a3.629 3.629 0 0 0-.024.48c0 .768.24 1.424.72 1.968.495.528 1.151.792 1.967.792.657 0 1.256-.168 1.8-.504a3.539 3.539 0 0 0 1.273-1.344h2.855a7.077 7.077 0 0 1-2.352 3.024c-1.056.768-2.344 1.152-3.864 1.152Zm1.703-7.68c.864 0 1.496-.168 1.897-.504.4-.352.6-.76.6-1.224 0-.432-.184-.8-.553-1.104-.352-.32-.912-.48-1.68-.48-1.04 0-1.912.296-2.616.888-.704.592-1.152 1.4-1.343 2.424h3.696Zm-11.12 3.456c-.096.576-.144.952-.144 1.128 0 .352.112.616.336.792.224.16.632.24 1.224.24.272 0 .648-.04 1.128-.12l-.336 2.04c-.096.032-.376.072-.84.12-.464.048-.912.072-1.344.072-1.2 0-2.032-.192-2.496-.576-.464-.4-.696-.96-.696-1.68 0-.448.048-.912.144-1.392l1.152-6.84H25.05l.36-2.28h2.208l.696-4.128h2.88l-.672 4.128h2.88l-.36 2.28h-2.904l-1.032 6.216Z"/><g clip-path="url(#a)"><path fill="#000" d="M13.163.369H8.04A8.16 8.16 0 0 1 .603 7.804v5.12a8.169 8.169 0 0 1 7.439 7.445h5.122a8.155 8.155 0 0 1 7.439-7.429V7.82A8.175 8.175 0 0 1 13.162.37Zm4.251 10.643a10.815 10.815 0 0 0-6.186 6.154l-.626 1.633-.632-1.633a10.773 10.773 0 0 0-6.175-6.16L2.15 10.37l1.645-.631a10.815 10.815 0 0 0 6.18-6.16l.632-1.633.626 1.632a10.808 10.808 0 0 0 6.181 6.166l1.64.632-1.64.637Z"/></g><defs><clipPath id="a"><path fill="#fff" d="M.602.369h20v20h-20z"/></clipPath></defs></svg>