<svg xmlns="http://www.w3.org/2000/svg" width="227" height="40" fill="none"><path fill="#DBFB1E" d="M35.413 0H.369A.365.365 0 0 0 0 .369v39.087c0 .2.163.369.369.369h4.344l11.518-1.838a.369.369 0 0 0 .313-.362V9.437a.36.36 0 0 0-.238-.343L6.7 5.519h12.788v33.944c0 .2.162.368.368.368H35.42a.365.365 0 0 0 .369-.369V.37a.365.365 0 0 0-.37-.369h-.005Zm-20.65 21.106c.2 0 .368.606.368 1.35 0 .744-.162 1.35-.369 1.35-.206 0-.368-.606-.368-1.35 0-.744.162-1.35.368-1.35Zm6.1 2.694c-.2 0-.37-.606-.37-1.35 0-.744.163-1.35.37-1.35.206 0 .368.606.368 1.35 0 .744-.162 1.35-.369 1.35Z"/><path fill="#fff" d="M70.844 32V21.792H59.132V32H55.58V8.96h3.552v9.568h11.712V8.96h3.552V32h-3.552Zm14.469.384c-5.152 0-8.224-3.712-8.224-8.704 0-4.992 3.072-8.704 8.224-8.704 5.184 0 8.256 3.712 8.256 8.704 0 4.992-3.072 8.704-8.256 8.704Zm-4.768-8.704c0 3.424 1.536 5.824 4.768 5.824 3.264 0 4.8-2.4 4.8-5.824s-1.536-5.824-4.8-5.824c-3.232 0-4.768 2.4-4.768 5.824Zm36.299-2.048c0-2.144-1.056-3.68-3.104-3.68-1.312 0-3.936.736-3.936 4.832V32h-3.36V21.632c0-2.144-1.056-3.68-3.104-3.68-1.312 0-3.937.736-3.937 4.832V32h-3.36V15.36h3.232v2.336c.961-1.536 2.561-2.72 4.961-2.72 2.432 0 4.096 1.28 4.928 3.168 1.088-1.792 2.848-3.168 5.472-3.168 3.648 0 5.568 2.88 5.568 6.304V32h-3.36V21.632Zm13.839 10.752c-4.928 0-8-3.712-8-8.704 0-4.992 3.072-8.704 8-8.704s8 3.648 8 8.864v.96h-12.576c.32 2.88 1.888 4.768 4.576 4.768 2.048 0 3.584-.96 4.288-2.656h3.36c-1.056 3.296-3.84 5.472-7.648 5.472Zm-4.512-10.24h9.024c-.416-2.624-1.984-4.352-4.512-4.352-2.528 0-4.096 1.728-4.512 4.352Zm31.35 12.48-1.984-2.848a12.693 12.693 0 0 1-3.936.608c-7.36 0-11.168-5.472-11.168-11.904 0-6.432 3.808-11.904 11.168-11.904 7.392 0 11.2 5.472 11.2 11.904 0 4.096-1.536 7.808-4.576 9.952l2.976 4.192h-3.68ZM144.145 20.48c0 4.704 2.304 8.672 7.456 8.672a9.08 9.08 0 0 0 1.92-.192l-3.136-4.448h3.68l2.208 3.136c1.92-1.6 2.816-4.224 2.816-7.168 0-4.704-2.304-8.672-7.488-8.672-5.152 0-7.456 3.968-7.456 8.672Zm24.445 5.248c0 2.144 1.056 3.68 3.488 3.68 1.28 0 4.256-.736 4.256-4.832h.032V15.36h3.36V32h-3.232v-2.368c-1.12 1.568-2.88 2.752-5.312 2.752-4.032 0-5.92-2.88-5.92-6.304V15.36h3.328v10.368Zm21.624 6.656c-4.928 0-8-3.712-8-8.704 0-4.992 3.072-8.704 8-8.704s8 3.648 8 8.864v.96h-12.576c.32 2.88 1.888 4.768 4.576 4.768 2.048 0 3.584-.96 4.288-2.656h3.36c-1.056 3.296-3.84 5.472-7.648 5.472Zm-4.512-10.24h9.024c-.416-2.624-1.984-4.352-4.512-4.352-2.528 0-4.096 1.728-4.512 4.352Zm21.206 10.24c-4.224 0-7.136-1.728-7.36-5.824h3.296c.256 2.368 1.664 3.2 4.128 3.2 2.176 0 3.552-.8 3.552-2.24 0-1.312-.48-1.888-4.032-2.496-5.152-.864-6.496-2.528-6.496-5.184 0-3.008 2.624-4.864 6.464-4.864 4.512 0 7.008 2.112 7.072 5.568H210.3c-.064-2.336-1.76-2.944-3.84-2.944-1.76 0-3.168.768-3.168 2.144 0 1.376.8 1.888 4.224 2.464 4.992.832 6.368 2.336 6.368 5.12 0 3.264-2.944 5.056-6.976 5.056Zm10.706-22.144h3.36v5.12h4.352v2.752h-4.352v9.504c0 1.152.48 1.632 1.664 1.632h2.688V32h-3.456c-2.816 0-4.256-1.056-4.256-4v-9.888h-2.976V15.36h2.976v-5.12Z"/></svg>